<?xml version="1.0" encoding="us-ascii" standalone="no"?><svg xmlns="http://www.w3.org/2000/svg" xmlns:xlink="http://www.w3.org/1999/xlink" contentStyleType="text/css" height="257px" preserveAspectRatio="none" style="width:659px;height:257px;background:#FFFFFF;" version="1.1" viewBox="0 0 659 257" width="659px" zoomAndPan="magnify"><defs/><g><!--cluster BDI Network--><g id="cluster_BDI Network"><rect fill="none" height="87.49" rx="2.5" ry="2.5" style="stroke:#181818;stroke-width:1.0;" width="186" x="237" y="164.49"/><text fill="#000000" font-family="sans-serif" font-size="14" font-weight="bold" lengthAdjust="spacing" textLength="91" x="284.5" y="180.0252">BDI Network</text></g><!--cluster Poort8 Network--><g id="cluster_Poort8 Network"><rect fill="none" height="87.49" rx="2.5" ry="2.5" style="stroke:#181818;stroke-width:1.0;" width="206" x="7" y="164.49"/><text fill="#000000" font-family="sans-serif" font-size="14" font-weight="bold" lengthAdjust="spacing" textLength="114" x="53" y="180.0252">Poort8 Network</text></g><!--cluster Jomco Network--><g id="cluster_Jomco Network"><rect fill="none" height="87.49" rx="2.5" ry="2.5" style="stroke:#181818;stroke-width:1.0;" width="249" x="220" y="7"/><text fill="#000000" font-family="sans-serif" font-size="14" font-weight="bold" lengthAdjust="spacing" textLength="111" x="289" y="22.5352">Jomco Network</text></g><!--cluster iSHARE Network--><g id="cluster_iSHARE Network"><rect fill="none" height="87.49" rx="2.5" ry="2.5" style="stroke:#181818;stroke-width:1.0;" width="206" x="447" y="164.49"/><text fill="#000000" font-family="sans-serif" font-size="14" font-weight="bold" lengthAdjust="spacing" textLength="118" x="491" y="180.0252">iSHARE Network</text></g><!--entity asr--><g id="elem_asr"><rect fill="#F1F1F1" height="36.4883" rx="2.5" ry="2.5" style="stroke:#181818;stroke-width:0.5;" width="154" x="253" y="199.49"/><text fill="#000000" font-family="sans-serif" font-size="14" lengthAdjust="spacing" textLength="134" x="263" y="223.0252">Assocation Registry</text></g><!--entity ar1--><g id="elem_ar1"><rect fill="#F1F1F1" height="36.4883" rx="2.5" ry="2.5" style="stroke:#181818;stroke-width:0.5;" width="174" x="23" y="199.49"/><text fill="#000000" font-family="sans-serif" font-size="14" lengthAdjust="spacing" textLength="154" x="33" y="223.0252">Authorization Registry</text></g><!--entity WMS--><g id="elem_WMS"><rect fill="#F1F1F1" height="36.4883" rx="2.5" ry="2.5" style="stroke:#181818;stroke-width:0.5;" width="52" x="321" y="42"/><text fill="#000000" font-family="sans-serif" font-size="14" lengthAdjust="spacing" textLength="32" x="331" y="65.5352">WMS</text></g><!--entity TMS--><g id="elem_TMS"><rect fill="#F1F1F1" height="36.4883" rx="2.5" ry="2.5" style="stroke:#181818;stroke-width:0.5;" width="49" x="236.5" y="42"/><text fill="#000000" font-family="sans-serif" font-size="14" lengthAdjust="spacing" textLength="29" x="246.5" y="65.5352">TMS</text></g><!--entity ERP--><g id="elem_ERP"><rect fill="#F1F1F1" height="36.4883" rx="2.5" ry="2.5" style="stroke:#181818;stroke-width:0.5;" width="45" x="407.5" y="42"/><text fill="#000000" font-family="sans-serif" font-size="14" lengthAdjust="spacing" textLength="25" x="417.5" y="65.5352">ERP</text></g><!--entity ar2--><g id="elem_ar2"><rect fill="#F1F1F1" height="36.4883" rx="2.5" ry="2.5" style="stroke:#181818;stroke-width:0.5;" width="174" x="463" y="199.49"/><text fill="#000000" font-family="sans-serif" font-size="14" lengthAdjust="spacing" textLength="154" x="473" y="223.0252">Authorization Registry</text></g><!--link WMS to asr--><g id="link_WMS_asr"><path d="M345.08,78.78 C341.82,108.64 335.8606,163.0854 332.5906,193.0654 " fill="none" id="WMS-to-asr" style="stroke:#181818;stroke-width:1.0;"/><polygon fill="#181818" points="331.94,199.03,336.8923,190.5168,332.4821,194.0595,328.9395,189.6493,331.94,199.03" style="stroke:#181818;stroke-width:1.0;"/></g><!--link WMS to ar1--><g id="link_WMS_ar1"><path d="M330.22,78.63 C322.32,86.37 312.55,95.33 303,102.49 C250.99,141.52 190.0273,175.4705 150.2173,196.2805 " fill="none" id="WMS-to-ar1" style="stroke:#181818;stroke-width:1.0;"/><polygon fill="#181818" points="144.9,199.06,154.729,198.4356,149.3311,196.7437,151.023,191.3458,144.9,199.06" style="stroke:#181818;stroke-width:1.0;"/></g><!--link WMS to ar2--><g id="link_WMS_ar2"><path d="M364.04,78.7 C371.74,86.28 381.08,95.1 390,102.49 C434.53,139.42 485.2359,174.2196 517.7959,195.7596 " fill="none" id="WMS-to-ar2" style="stroke:#181818;stroke-width:1.0;"/><polygon fill="#181818" points="522.8,199.07,517.5008,190.7683,518.6299,196.3113,513.0869,197.4404,522.8,199.07" style="stroke:#181818;stroke-width:1.0;"/></g><!--link TMS to asr--><g id="link_TMS_asr"><path d="M268.78,78.78 C282.03,108.64 306.4069,163.5655 319.7069,193.5455 " fill="none" id="TMS-to-asr" style="stroke:#181818;stroke-width:1.0;"/><polygon fill="#181818" points="322.14,199.03,322.1467,189.1811,320.1124,194.4596,314.834,192.4253,322.14,199.03" style="stroke:#181818;stroke-width:1.0;"/></g><!--link ERP to ar2--><g id="link_ERP_ar2"><path d="M443.53,78.78 C466.58,108.64 509.5239,164.3003 532.6639,194.2803 " fill="none" id="ERP-to-ar2" style="stroke:#181818;stroke-width:1.0;"/><polygon fill="#181818" points="536.33,199.03,533.9974,189.4614,533.2749,195.0719,527.6644,194.3495,536.33,199.03" style="stroke:#181818;stroke-width:1.0;"/></g><!--link TMS to ar1--><g id="link_TMS_ar1"><path d="M237.04,78.94 C217.68,93.78 190.25,116.1 169,138.49 C150.73,157.74 136.196,177.6299 124.986,194.0999 " fill="none" id="TMS-to-ar1" style="stroke:#181818;stroke-width:1.0;"/><polygon fill="#181818" points="121.61,199.06,129.9807,193.8705,124.4233,194.9266,123.3673,189.3692,121.61,199.06" style="stroke:#181818;stroke-width:1.0;"/></g><!--link ar1 to asr--><g id="link_ar1_asr"><path d="M197.23,217.74 C215.72,217.74 228.22,217.74 246.72,217.74 " fill="none" id="ar1-to-asr" style="stroke:#181818;stroke-width:1.0;"/><polygon fill="#181818" points="252.72,217.74,243.72,213.74,247.72,217.74,243.72,221.74,252.72,217.74" style="stroke:#181818;stroke-width:1.0;"/></g><!--link ar2 to asr--><g id="link_ar2_asr"><path d="M462.51,217.74 C444.12,217.74 431.73,217.74 413.34,217.74 " fill="none" id="ar2-to-asr" style="stroke:#181818;stroke-width:1.0;"/><polygon fill="#181818" points="407.34,217.74,416.34,221.74,412.34,217.74,416.34,213.74,407.34,217.74" style="stroke:#181818;stroke-width:1.0;"/></g><!--SRC=[AqfDBadCIyz9LL1oSl5Ky4ijASylobPIgEPIW88YX0h7ukByvCIIpFmyXQ3KzCpYag9A9ON4OY0gughbua9I6P2VNrHYGSYuqfAC_ABCAcmc5XcYcUYLdvkSJy30SDzW9MpY8JZ4NOC2bD2ioGpsS0nofSJXHY0JWIvHqDNLjGC73O83z1KInuWh15aPq3NOP81wW5W1gWWe1sK20000]--></g></svg>